Coordinates
version=1
nRows=22
nColumns=24
inDegrees=yes

Units are S.I. units (second, meters, Newtons, ...)
Angles are in degrees.

endheader
time	pelvis_tilt	pelvis_list	pelvis_rotation	pelvis_tx	pelvis_ty	pelvis_tz	hip_flexion_r	hip_adduction_r	hip_rotation_r	knee_angle_r	ankle_angle_r	subtalar_angle_r	mtp_angle_r	hip_flexion_l	hip_adduction_l	hip_rotation_l	knee_angle_l	ankle_angle_l	subtalar_angle_l	mtp_angle_l	lumbar_extension	lumbar_bending	lumbar_rotation
      3.72500000	    -10.59465057	      5.00607105	     -4.57739061	     -2.22673662	     -0.01775798	     -0.68941933	     16.05945254	     -7.21169638	     -2.90894469	    -59.13848682	    -16.69803564	    -15.99207293	      1.58839311	     26.69253860	      5.74749574	    -12.90399427	    -22.96071977	      2.43727978	    -10.36802445	      1.69334830	      7.46819021	     -5.36725086	      2.35029655
      3.73000000	    -10.63566151	      4.95089710	     -4.57744988	     -2.22168664	     -0.01704695	     -0.68989405	     16.98008416	     -7.15895765	     -2.86024145	    -60.11196642	    -16.45546837	    -16.63951046	      1.35963101	     26.23595186	      5.80385570	    -12.79818179	    -22.67457049	      2.63036444	    -10.38544264	      1.68196669	      7.46185288	     -5.28261893	      2.15307973
      3.73500000	    -10.70728889	      4.92846635	     -4.55767226	     -2.21666307	     -0.01639896	     -0.69039441	     17.93402220	     -7.15182063	     -2.82982579	    -61.03943196	    -16.03581757	    -17.07739074	      1.05938678	     25.81700980	      5.89668288	    -12.73686429	    -22.38014973	      2.79403134	    -10.41899193	      1.59028747	      7.48901675	     -5.23220094	      1.92441319
      3.74000000	    -10.85286059	      4.85974486	     -4.55125333	     -2.21168125	     -0.01581533	     -0.69091210	     18.97436779	     -7.07389854	     -2.77734282	    -61.91861958	    -15.53031661	    -17.29414407	      0.38645503	     25.46894397	      5.94776328	    -12.53787606	    -22.08729292	      3.02714146	    -10.47101669	      1.29382275	      7.59552119	     -5.11279466	      1.76318790
      3.74500000	    -10.80398811	      4.78947030	     -4.51918233	     -2.20662581	     -0.01497144	     -0.69140727	     19.73331754	     -7.02420681	     -2.77848578	    -62.61475539	    -15.11298734	    -17.58450980	      0.40294804	     24.87351490	      6.01370451	    -12.39961985	    -21.73003573	      3.21776794	    -10.41008679	      1.28208829	      7.49763663	     -5.02104334	      1.53574693
      3.75000000	    -10.94893063	      4.74902223	     -4.50671868	     -2.20165995	     -0.01439913	     -0.69193985	     20.74999742	     -6.98107507	     -2.73733935	    -63.32309814	    -14.56762614	    -17.67821993	      0.10160755	     24.51001640	      6.09637871	    -12.26356937	    -21.39142497	      3.40440120	    -10.50516612	      0.90072248	      7.60962751	     -4.92887396	      1.37436594
      3.75500000	    -10.91500500	      4.66512554	     -4.47780226	     -2.19664591	     -0.01355463	     -0.69240370	     21.50603218	     -6.90108912	     -2.74264006	    -63.85711946	    -14.15856581	    -17.88386654	      0.16425735	     23.91503956	      6.14023719	    -12.13606493	    -21.00104472	      3.57794248	    -10.43089202	      0.87880298	      7.52787104	     -4.81986553	      1.15045176
      3.76000000	    -10.96813727	      4.63506629	     -4.44528297	     -2.19164734	     -0.01287725	     -0.69294119	     22.37071190	     -6.88366518	     -2.72075847	    -64.36428802	    -13.59436469	    -17.84228630	      0.28385883	     23.42264992	      6.23865758	    -12.05661170	    -20.60528398	      3.73965492	    -10.42237742	      0.68287485	      7.54866716	     -4.74929416	      0.94894816
      3.76500000	    -10.95910096	      4.54550671	     -4.42790617	     -2.18662010	     -0.01206045	     -0.69337949	     23.12678910	     -6.78022365	     -2.72022383	    -64.73465177	    -13.16502425	    -17.96095627	      0.40632232	     22.83018112	      6.27017876	    -11.91202370	    -20.17227031	      3.90315063	    -10.34800563	      0.63797508	      7.50692187	     -4.62441001	      0.78307803
      3.77000000	    -10.96594887	      4.50838788	     -4.38200150	     -2.18159679	     -0.01134363	     -0.69392576	     23.89637412	     -6.76070610	     -2.71559444	    -65.06080062	    -12.59045688	    -17.81811656	      0.70922192	     22.26154697	      6.36653715	    -11.83864573	    -19.73200090	      4.08161111	    -10.28414588	      0.51073217	      7.48274512	     -4.54926380	      0.59738546
      3.77500000	    -10.94427838	      4.45175549	     -4.35546282	     -2.17654675	     -0.01056892	     -0.69440135	     24.60640860	     -6.70201120	     -2.70243910	    -65.27979827	    -12.04760364	    -17.71455851	      1.10916425	     21.64499083	      6.43436780	    -11.74990521	    -19.27166718	      4.24428278	    -10.19832704	      0.37809366	      7.43773983	     -4.45498648	      0.41900308
      3.78000000	    -10.86605158	      4.39464750	     -4.33574761	     -2.17146844	     -0.00968643	     -0.69489969	     25.21279510	     -6.64351514	     -2.66948062	    -65.33577751	    -11.71964150	    -17.80540689	      2.49510470	     20.94486304	      6.51525824	    -11.65249673	    -18.77696652	      4.42198255	    -10.12239552	     -0.12215068	      7.33698371	     -4.35877396	      0.24216696
      3.78500000	    -10.84451042	      4.30946558	     -4.26522055	     -2.16640564	     -0.00893725	     -0.69536256	     25.86899962	     -6.56319065	     -2.72336025	    -65.38960557	    -11.15773256	    -17.70389787	      2.74045588	     20.32284440	      6.55163535	    -11.55709794	    -18.31297401	      4.60383752	     -9.94059518	     -0.08497606	      7.28958454	     -4.24735683	      0.03388198
      3.79000000	    -10.76926204	      4.23418299	     -4.21130896	     -2.16130769	     -0.00813115	     -0.69579769	     26.44064009	     -6.49095125	     -2.75823329	    -65.34959288	    -10.57268718	    -17.56166253	      3.10540596	     19.62554610	      6.59669974	    -11.49795446	    -17.81377592	      4.74710265	     -9.77033297	     -0.05026447	      7.19378680	     -4.14526853	     -0.16375770
      3.79500000	    -10.63884297	      4.14088794	     -4.15945109	     -2.15618597	     -0.00724426	     -0.69621304	     26.90968332	     -6.40011804	     -2.79571028	    -65.19298259	     -9.99983182	    -17.44081934	      3.65955790	     18.86050105	      6.62217762	    -11.47001799	    -17.30014996	      4.83976836	     -9.60895110	     -0.00769123	      7.04203886	     -4.03066832	     -0.38939899
      3.80000000	    -10.52065921	      4.04597442	     -4.09948950	     -2.15106699	     -0.00641769	     -0.69665135	     27.37737616	     -6.31749107	     -2.86444378	    -64.96619234	     -9.47373801	    -17.39540257	      4.21964035	     18.10561726	      6.64973340	    -11.39658054	    -16.78288820	      4.95687730	     -9.44440389	      0.06586586	      6.90218662	     -3.90883969	     -0.59276186
      3.80500000	    -10.54286518	      3.96577184	     -4.07381910	     -2.14601666	     -0.00580673	     -0.69698348	     28.02511533	     -6.20619718	     -2.92398049	    -64.71889365	     -9.02244138	    -17.56088873	      4.31902747	     17.52526008	      6.66309420	    -11.35887802	    -16.29044775	      5.05944103	     -9.35937725	      0.07673759	      6.91515487	     -3.79508095	     -0.73991702
      3.81000000	    -10.24042109	      3.85111546	     -4.03768264	     -2.14085310	     -0.00481008	     -0.69743428	     28.21707452	     -6.12379733	     -2.99554812	    -64.28455787	     -8.48645599	    -17.49025995	      5.14759451	     16.53942740	      6.68065670	    -11.27767608	    -15.72506340	      5.15393485	     -9.16646001	      0.23499845	      6.57793759	     -3.65248825	     -0.91905132
      3.81500000	    -10.22312353	      3.75925757	     -3.95779320	     -2.13577550	     -0.00424861	     -0.69789912	     28.75100307	     -6.05715313	     -3.11500596	    -63.87868570	     -7.91491769	    -17.45404809	      5.35679065	     15.91999694	      6.69938863	    -11.18576871	    -15.24963196	      5.29219620	     -8.99649653	      0.30137036	      6.54577590	     -3.52334923	     -1.13034566
      3.82000000	    -10.08531401	      3.65466046	     -3.90993862	     -2.13067297	     -0.00354615	     -0.69832832	     29.11073578	     -5.97094687	     -3.21973799	    -63.35772761	     -7.35867750	    -17.46938211	      5.54293704	     15.15407487	      6.70493972	    -11.15427513	    -14.74361476	      5.38155465	     -8.84125276	      0.36155549	      6.38341377	     -3.38054721	     -1.33428401
      3.82500000	     -9.98409551	      3.55996037	     -3.86920954	     -2.12558057	     -0.00296754	     -0.69876286	     29.50513174	     -5.89736576	     -3.33915870	    -62.78733267	     -6.84549518	    -17.54905148	      5.61445484	     14.42751719	      6.71859675	    -11.07324791	    -14.23989789	      5.51581220	     -8.68770932	      0.42147144	      6.26288257	     -3.24308176	     -1.49435569
      3.83000000	     -9.85330704	      3.45478579	     -3.81925570	     -2.12049167	     -0.00237082	     -0.69918217	     29.82861789	     -5.81797711	     -3.47995244	    -62.12522583	     -6.34045144	    -17.66305458	      5.58353755	     13.67744240	      6.71814920	    -11.04086422	    -13.74739536	      5.61223197	     -8.52462667	      0.47242618	      6.10549161	     -3.09664851	     -1.69648323
